<svg xmlns="http://www.w3.org/2000/svg" xmlns:xlink="http://www.w3.org/1999/xlink" viewBox="0,0,256,256" width="100px" height="100px" fill-rule="nonzero"><g fill="none" fill-rule="nonzero" stroke="none" stroke-width="1" stroke-linecap="butt" stroke-linejoin="miter" stroke-miterlimit="10" stroke-dasharray="" stroke-dashoffset="0" font-family="none" font-weight="none" font-size="none" text-anchor="none" style="mix-blend-mode: normal"><g transform="scale(2.56,2.56)"><path d="M18.125,83.812c0,3.256 1.996,6.054 5.252,6.167c4.919,0.048 9.338,0 13.829,0c3.256,0 5.923,-2.863 5.811,-6.568c-0.089,-4.367 0.088,-22.983 0.088,-28.597c0,-1.011 0.655,-1.209 1.586,-1.542c2.097,-0.533 3.981,-0.688 6.339,-0.239c4.155,0.898 6.797,4.161 7.247,8.316c0.225,2.133 0.449,4.267 0.449,6.4c0.039,5.847 -0.339,10.553 -0.226,16.055c0,3.705 2.071,6.175 5.776,6.175c3.93,0 7.606,-0.02 12.561,0c4.382,0.018 7.038,-2.422 7.038,-6.239c0,-11.453 0,-35.114 0,-35.114c-0.112,-1.235 -0.973,-2.164 -1.984,-2.726c-0.786,-0.449 -1.46,-0.786 -2.358,-1.011c-3.256,-0.786 -6.214,-0.922 -9.47,-0.473c-2.47,0.337 -4.941,1.011 -7.523,1.46c-3.256,0.674 -7.118,1.355 -10.486,1.018c-4.267,-0.449 -7.495,-1.973 -11.088,-4.443c-1.684,-1.123 -3.369,-2.246 -5.053,-3.369c-2.133,-1.347 -4.818,-1.719 -7.288,-1.831c-2.559,-0.116 -7.01,-0.672 -8.99,1.387c-1.039,1.08 -1.424,2.775 -1.424,4.238c0,6.848 -0.086,34.423 -0.086,40.936z" fill="#2908da"></path><path d="M28.15,91c-1.553,0 -3.141,-0.005 -4.783,-0.021c-3.627,-0.125 -6.242,-3.139 -6.242,-7.167c0,-3.216 0.021,-11.566 0.042,-20.021c0.021,-8.669 0.044,-17.448 0.044,-20.916c0,-2.009 0.621,-3.807 1.703,-4.932c2.069,-2.151 5.964,-1.917 8.806,-1.745c0.338,0.02 0.657,0.04 0.95,0.053c2.145,0.098 5.283,0.409 7.777,1.985l5.073,3.381c3.859,2.653 6.938,3.892 10.638,4.281c3.168,0.319 6.924,-0.329 10.18,-1.002c1.115,-0.194 2.179,-0.423 3.231,-0.649c1.426,-0.306 2.9,-0.623 4.359,-0.822c3.386,-0.467 6.513,-0.311 9.839,0.492c0.992,0.248 1.737,0.61 2.62,1.115c1.445,0.803 2.354,2.082 2.483,3.503l0.004,35.205c0,2.039 -0.678,3.791 -1.959,5.067c-1.428,1.421 -3.513,2.172 -6.032,2.172c-0.017,0 -0.034,0 -0.051,0c-3.338,-0.014 -6.091,-0.008 -8.735,-0.004l-3.821,0.004c-4.116,0 -6.776,-2.816 -6.776,-7.175c-0.061,-2.936 0.019,-5.608 0.102,-8.438c0.07,-2.407 0.144,-4.896 0.125,-7.611c0,-2.087 -0.226,-4.23 -0.443,-6.302c-0.419,-3.875 -2.836,-6.658 -6.463,-7.443c-2.015,-0.383 -3.724,-0.318 -5.882,0.23c-0.833,0.301 -0.833,0.317 -0.833,0.573c0,1.981 -0.022,5.582 -0.047,9.604c-0.044,7.199 -0.099,16.159 -0.041,18.973c0.064,2.131 -0.675,4.108 -2.081,5.558c-1.271,1.31 -2.95,2.031 -4.73,2.031c-1.483,0 -2.958,0.005 -4.445,0.011c-1.518,0.005 -3.047,0.01 -4.612,0.01zM25.086,38.097c-1.853,0 -3.765,0.229 -4.73,1.233c-0.717,0.745 -1.145,2.07 -1.145,3.545c0,3.468 -0.022,12.25 -0.044,20.92c-0.021,8.454 -0.042,16.802 -0.042,20.017c0,2.417 1.342,5.065 4.286,5.167c3.266,0.032 6.329,0.021 9.342,0.01c1.49,-0.005 2.968,-0.011 4.453,-0.011c1.234,0 2.404,-0.505 3.295,-1.424c1.026,-1.058 1.565,-2.519 1.517,-4.114c-0.058,-2.85 -0.005,-11.449 0.041,-19.036c0.024,-4.017 0.047,-7.613 0.047,-9.592c0,-1.682 1.248,-2.126 2.158,-2.451c0.029,-0.011 0.152,-0.053 0.183,-0.061c2.431,-0.617 4.455,-0.693 6.772,-0.252c4.468,0.966 7.544,4.486 8.053,9.191c0.224,2.126 0.455,4.321 0.455,6.507c0.019,2.744 -0.055,5.251 -0.126,7.676c-0.082,2.804 -0.16,5.453 -0.101,8.359c0,3.309 1.741,5.195 4.776,5.195l3.818,-0.004c2.645,-0.004 5.404,-0.01 8.746,0.004c0.015,0 0.029,0 0.043,0c1.979,0 3.576,-0.549 4.62,-1.589c0.897,-0.893 1.371,-2.155 1.371,-3.65v-35.112c-0.09,-0.939 -0.959,-1.568 -1.469,-1.852c-0.765,-0.437 -1.351,-0.724 -2.115,-0.915c-3.111,-0.751 -5.916,-0.89 -9.091,-0.453c-1.385,0.189 -2.758,0.484 -4.211,0.796c-1.078,0.231 -2.168,0.465 -3.278,0.659c-3.545,0.733 -7.329,1.37 -10.757,1.027c-4.063,-0.428 -7.409,-1.765 -11.555,-4.614l-5.041,-3.36c-2.072,-1.309 -4.862,-1.578 -6.779,-1.665c-0.303,-0.014 -0.632,-0.034 -0.979,-0.055c-0.75,-0.044 -1.624,-0.096 -2.513,-0.096z" fill="#1f212b"></path><path d="M77.101,86.031c-1.688,-0.007 -3.203,-0.009 -4.632,-0.009l-7.975,0.009c-0.407,0 -1.737,-0.167 -1.777,-2.312c-0.035,-1.892 0.036,-3.735 0.104,-5.517c0.047,-1.237 0.094,-2.449 0.104,-3.638c0.018,-2.18 0.035,-4.427 0.019,-6.938c0,-0.963 -0.041,-1.993 -0.127,-3.152c-0.02,-0.275 0.187,-0.515 0.462,-0.535c0.272,-0.026 0.516,0.186 0.536,0.462c0.087,1.183 0.129,2.237 0.129,3.222c0.017,2.513 -0.001,4.765 -0.019,6.949c-0.01,1.198 -0.057,2.421 -0.104,3.668c-0.067,1.768 -0.138,3.596 -0.104,5.459c0.011,0.607 0.155,1.331 0.776,1.331l7.975,-0.009c1.432,0 2.946,0.002 4.635,0.009c1.729,0 1.729,-0.334 1.729,-1.228l0.227,-6.867c0.009,-0.275 0.214,-0.509 0.517,-0.483c0.276,0.009 0.492,0.24 0.483,0.516l-0.227,6.851c-0.001,1.203 -0.206,2.212 -2.731,2.212zM28.367,85.906c-1.513,0 -3.058,-0.005 -4.656,-0.021c-1.076,-0.073 -1.61,-0.817 -1.619,-2.214l0.086,-38.941c0.001,-0.276 0.225,-0.499 0.5,-0.499h0.001c0.276,0 0.5,0.225 0.499,0.501l-0.086,38.937c0.007,1.172 0.384,1.198 0.658,1.217c2.963,0.027 5.817,0.02 8.592,0.011l0.615,-0.002c1.52,-0.005 2.989,-0.011 4.467,-0.011c0.095,0 0.242,-0.021 0.424,-0.209c0.266,-0.274 0.404,-0.72 0.388,-1.253c-0.042,-2.056 -0.01,-7.173 0.025,-12.591c0.02,-3.061 0.039,-6.223 0.047,-8.996c0.001,-0.275 0.225,-0.499 0.5,-0.499h0.001c0.276,0.001 0.5,0.225 0.499,0.501c-0.008,2.773 -0.028,5.937 -0.047,8.999c-0.035,5.411 -0.067,10.522 -0.025,12.56c0.024,0.801 -0.214,1.504 -0.67,1.975c-0.326,0.335 -0.721,0.512 -1.142,0.512c-1.477,0 -2.944,0.005 -4.426,0.011l-0.652,0.002c-1.31,0.005 -2.631,0.01 -3.979,0.01zM79.558,71.125c-0.276,0 -0.5,-0.224 -0.5,-0.5v-18.09c0,-0.276 0.224,-0.5 0.5,-0.5c0.276,0 0.5,0.224 0.5,0.5v18.09c0,0.276 -0.224,0.5 -0.5,0.5zM62.969,61.283c-0.252,0 -0.469,-0.19 -0.496,-0.446c-0.198,-1.836 -0.703,-3.549 -1.498,-5.092c-0.127,-0.245 -0.03,-0.547 0.215,-0.673c0.246,-0.127 0.547,-0.03 0.674,0.215c0.853,1.652 1.392,3.483 1.604,5.442c0.029,0.274 -0.169,0.521 -0.443,0.551c-0.02,0.002 -0.038,0.003 -0.056,0.003zM38.818,58v0c-0.277,0 -0.501,-0.225 -0.5,-0.501l0.004,-2.78c0,-2.296 0.752,-3.914 2.3,-4.946c0.227,-0.153 0.539,-0.092 0.693,0.139c0.153,0.229 0.091,0.54 -0.139,0.693c-1.266,0.844 -1.854,2.151 -1.854,4.114l-0.004,2.782c-0.001,0.276 -0.224,0.499 -0.5,0.499zM59.734,53.488c-0.142,0 -0.282,-0.06 -0.382,-0.177c-0.237,-0.28 -0.486,-0.55 -0.746,-0.808c-0.146,-0.144 -0.292,-0.283 -0.443,-0.418c-0.206,-0.184 -0.224,-0.5 -0.04,-0.706c0.187,-0.206 0.503,-0.223 0.706,-0.039c0.165,0.147 0.325,0.298 0.481,0.454c0.28,0.277 0.549,0.568 0.806,0.871c0.178,0.21 0.152,0.526 -0.059,0.705c-0.093,0.079 -0.208,0.118 -0.323,0.118z" fill="#1f212b"></path><path d="M30.612,33.25c6.931,0 12.612,-5.567 12.612,-12.612c0,-6.931 -5.567,-12.612 -12.612,-12.612c-7.045,0 -12.612,5.568 -12.612,12.612v0c0.114,6.931 5.681,12.612 12.612,12.612z" fill="#2908da"></path><path d="M30.611,34.25c-7.383,0 -13.488,-6.099 -13.611,-13.596c0,-7.649 5.979,-13.628 13.611,-13.628c7.506,0 13.612,6.106 13.612,13.612c0,7.506 -6.106,13.612 -13.612,13.612zM30.611,9.026c-6.51,0 -11.611,5.101 -11.611,11.612c0.104,6.396 5.313,11.612 11.611,11.612c6.403,0 11.612,-5.209 11.612,-11.612c0,-6.403 -5.208,-11.612 -11.612,-11.612z" fill="#1f212b"></path><path d="M30.611,29.25c-4.67,0 -8.533,-3.893 -8.612,-8.677c0.001,-4.796 3.784,-8.546 8.612,-8.546c2.738,0 5.341,1.326 6.962,3.547c0.162,0.223 0.113,0.536 -0.109,0.699c-0.222,0.163 -0.535,0.114 -0.699,-0.109c-1.433,-1.964 -3.732,-3.137 -6.153,-3.137c-4.268,0 -7.611,3.311 -7.612,7.538c0.069,4.234 3.484,7.686 7.612,7.686c1.985,0 3.865,-0.763 5.295,-2.148c0.198,-0.192 0.515,-0.187 0.707,0.011c0.191,0.198 0.187,0.515 -0.012,0.707c-1.617,1.566 -3.745,2.429 -5.991,2.429z" fill="#1f212b"></path><path d="M38.724,20.638c0,1.377 -0.345,2.675 -0.953,3.811" fill="#2908da"></path><path d="M37.771,24.95c-0.08,0 -0.161,-0.019 -0.236,-0.059c-0.243,-0.13 -0.335,-0.433 -0.204,-0.677c0.584,-1.093 0.894,-2.33 0.894,-3.576c0,-0.276 0.224,-0.5 0.5,-0.5c0.276,0 0.5,0.224 0.5,0.5c0,1.41 -0.35,2.81 -1.013,4.047c-0.091,0.169 -0.264,0.265 -0.441,0.265z" fill="#1f212b"></path><circle cx="70.638" cy="26.513" r="12.487" fill="#2908da"></circle><path d="M70.639,40c-7.437,0 -13.487,-6.05 -13.487,-13.487c0,-7.437 6.051,-13.487 13.487,-13.487c7.436,0 13.486,6.05 13.486,13.487c0,7.437 -6.05,13.487 -13.486,13.487zM70.639,15.026c-6.334,0 -11.487,5.153 -11.487,11.487c0,6.334 5.153,11.487 11.487,11.487c6.334,0 11.486,-5.153 11.486,-11.487c0,-6.334 -5.152,-11.487 -11.486,-11.487z" fill="#1f212b"></path><path d="M70.639,35.044c-0.736,0 -1.468,-0.094 -2.173,-0.28c-0.267,-0.07 -0.426,-0.344 -0.355,-0.611c0.071,-0.267 0.341,-0.427 0.611,-0.356c1.458,0.385 3.046,0.317 4.467,-0.197c2.979,-1.076 4.981,-3.923 4.981,-7.087c0,-4.153 -3.379,-7.531 -7.531,-7.531c-0.648,0 -1.292,0.083 -1.911,0.245c-0.674,0.177 -1.319,0.448 -1.919,0.804c-0.237,0.141 -0.545,0.063 -0.685,-0.175c-0.142,-0.238 -0.063,-0.544 0.175,-0.686c0.679,-0.403 1.411,-0.709 2.175,-0.91c0.702,-0.185 1.431,-0.278 2.165,-0.278c4.704,0 8.531,3.827 8.531,8.531c0,3.583 -2.268,6.81 -5.642,8.027c-0.924,0.335 -1.897,0.504 -2.889,0.504z" fill="#1f212b"></path><g><path d="M63.602,22.644c0.274,-0.497 0.599,-0.961 0.968,-1.387" fill="#2908da"></path><path d="M63.602,23.139c-0.081,0 -0.163,-0.02 -0.239,-0.062c-0.239,-0.132 -0.326,-0.433 -0.194,-0.672c0.29,-0.525 0.636,-1.02 1.028,-1.472c0.179,-0.207 0.492,-0.228 0.698,-0.049c0.207,0.179 0.229,0.492 0.05,0.699c-0.348,0.399 -0.653,0.837 -0.909,1.301c-0.092,0.163 -0.261,0.255 -0.434,0.255z" fill="#1f212b"></path></g><g><path d="M65.812,32.929c-0.486,-0.367 -0.93,-0.787 -1.321,-1.253c-1.175,-1.397 -1.884,-3.198 -1.884,-5.162" fill="#2908da"></path><path d="M65.812,33.424c-0.104,0 -0.209,-0.033 -0.298,-0.1c-0.517,-0.389 -0.988,-0.837 -1.402,-1.33c-1.29,-1.533 -2,-3.48 -2,-5.48c0,-0.273 0.222,-0.495 0.495,-0.495c0.273,0 0.495,0.222 0.495,0.495c0,1.768 0.628,3.488 1.768,4.843c0.367,0.437 0.784,0.833 1.24,1.177c0.219,0.165 0.262,0.475 0.098,0.693c-0.099,0.129 -0.247,0.197 -0.396,0.197z" fill="#1f212b"></path></g></g></g></svg>